<svg width="128px" height="128px" viewBox="0 0 128 128" fill="none" xmlns="http://www.w3.org/2000/svg">
  <rect x="0" y="0" width="128" height="128" rx="16" fill="#737373" />
  <path
    d="M 79.017 10.13 C 78.985 10.201 78.143 10.958 77.146 11.813 C 76.149 12.667 75.294 13.406 75.246 13.454 C 75.199 13.503 74.656 13.969 74.039 14.491 C 73.05 15.329 72.148 16.111 71.553 16.649 C 71.447 16.744 70.6 17.477 69.671 18.277 C 68.741 19.077 68.003 19.821 68.03 19.93 C 68.058 20.039 68.831 20.832 69.749 21.692 C 73.427 25.139 76.514 28.724 79.313 32.794 C 85.724 42.119 89.305 53.615 89.293 64.827 C 89.282 74.74 86.746 84.168 81.719 92.99 C 80.722 94.738 77.827 99.179 77.507 99.451 C 77.451 99.498 76.652 100.475 75.732 101.621 C 74.121 103.629 69.278 108.665 68.414 109.231 C 68.183 109.382 67.994 109.597 67.994 109.709 C 67.994 109.878 78.248 118.909 79.257 119.628 C 79.55 119.837 79.708 119.752 80.825 118.775 C 82.037 117.717 85.345 114.43 86.733 112.905 C 90.061 109.248 93.453 104.662 96.047 100.314 C 97.28 98.246 100.056 92.622 100.889 90.503 C 103.352 84.235 105.06 77.133 105.632 70.785 C 105.863 68.213 105.862 61.413 105.629 58.87 C 105.413 56.517 104.36 50.134 104.004 49.027 C 103.867 48.599 103.589 47.589 103.387 46.782 C 101.298 38.443 96.303 28.63 90.29 21.052 C 86.822 16.682 80.287 10 79.481 10 C 79.257 10 79.048 10.058 79.017 10.13 M 55.906 30.228 C 55.668 30.425 55.016 30.986 54.457 31.474 C 53.336 32.452 53.237 32.538 51.931 33.648 C 51.435 34.07 50.941 34.498 50.834 34.598 C 50.727 34.698 50.134 35.208 49.516 35.73 C 48.899 36.252 48.309 36.757 48.205 36.852 C 47.931 37.102 45.743 39.03 45.228 39.476 L 44.79 39.854 L 46.765 41.808 C 50.891 45.892 53.664 50.413 55.375 55.848 C 56.883 60.639 57.082 66.499 55.918 71.907 C 55.651 73.148 54.533 76.429 53.996 77.548 C 51.813 82.098 49.857 84.865 46.535 88.104 C 45.531 89.083 44.866 89.858 44.957 89.944 C 46.284 91.205 56.385 99.796 56.539 99.796 C 57.136 99.796 63.064 93.406 64.713 90.986 C 67.133 87.435 68.638 84.759 69.715 82.096 C 70.023 81.336 70.375 80.481 70.498 80.196 C 70.882 79.307 71.945 75.764 72.209 74.498 C 73.067 70.367 73.23 68.848 73.234 64.914 C 73.237 61.469 73.184 60.716 72.769 58.269 C 72.511 56.751 72.18 55.041 72.034 54.47 C 69.805 45.739 64.779 37.376 58.064 31.225 C 57.4 30.616 56.83 30.059 56.798 29.988 C 56.698 29.764 56.353 29.857 55.906 30.228 M 32.764 50.279 C 32.527 50.492 31.828 51.095 31.211 51.617 C 30.594 52.139 30.002 52.649 29.895 52.749 C 29.788 52.849 29.294 53.277 28.797 53.699 C 27.069 55.168 25.769 56.294 23.449 58.33 C 21.085 60.404 20.882 60.58 19.642 61.633 C 19.027 62.155 18.289 62.79 18.003 63.044 C 16.972 63.961 16.614 64.262 16.279 64.5 C 15.849 64.805 15.091 64.089 24.046 71.83 C 28.035 75.278 31.788 78.526 32.387 79.048 L 33.475 79.996 L 34.681 78.801 C 36.972 76.53 39.255 72.748 39.934 70.1 C 40.765 66.859 40.884 64.562 40.37 61.706 C 39.668 57.807 38.267 54.969 35.492 51.824 C 33.637 49.72 33.48 49.632 32.764 50.279"
    stroke="none" fill="#fff" fill-rule="evenodd" />
</svg>