<svg width="128px" height="128px" viewBox="0 0 128 128" fill="none" xmlns="http://www.w3.org/2000/svg">
  <rect x="0" y="0" width="128" height="128" rx="16" fill="#737373" />
  <g transform="translate(16,16) scale(0.75)">
    <svg version="1.1" id="svg2" xmlns:dc="http://purl.org/dc/elements/1.1/" xmlns:cc="http://creativecommons.org/ns#"
      xmlns:rdf="http://www.w3.org/1999/02/22-rdf-syntax-ns#" xmlns:svg="http://www.w3.org/2000/svg"
      xmlns:sodipodi="http://sodipodi.sourceforge.net/DTD/sodipodi-0.dtd"
      xmlns:inkscape="http://www.inkscape.org/namespaces/inkscape" sodipodi:docname="repeat.svg"
      inkscape:version="0.48.4 r9939" xmlns="http://www.w3.org/2000/svg" xmlns:xlink="http://www.w3.org/1999/xlink"
      viewBox="0 0 1200 1200" enable-background="new 0 0 1200 1200" xml:space="preserve" fill="#fff">
      <g id="SVGRepo_bgCarrier" stroke-width="0"></g>
      <g id="SVGRepo_tracerCarrier" stroke-linecap="round" stroke-linejoin="round"></g>
      <g id="SVGRepo_iconCarrier">
        <path id="path18745" inkscape:connector-curvature="0"
          d="M600,0C268.629,0,0,268.629,0,600s268.629,600,600,600 c222.411,0,416.39-121.104,520.02-300.879L908.79,777.612C847.217,884.405,732.127,956.47,600,956.47 c-196.873,0-356.47-159.597-356.47-356.47S403.127,243.53,600,243.53c84.387,0,161.732,29.521,222.729,78.589L665.186,434.18 L1200,612.524V53.613l-174.17,123.926C917.124,67.952,766.553,0,600,0z">
        </path>
      </g>
    </svg>
  </g>
</svg>